<mxfile host="app.diagrams.net" modified="2021-03-02T09:36:37.902Z" agent="5.0 (Windows NT 10.0; Win64; x64) AppleWebKit/537.36 (KHTML, like Gecko) Chrome/88.0.4324.190 Safari/537.36" etag="VWhIjZOiGfPE73z10CGA" version="14.4.3" type="github">
  <diagram id="8luDifJgrYdAkf5meUPo" name="Page-1">
    <mxGraphModel dx="1861" dy="643" grid="1" gridSize="10" guides="1" tooltips="1" connect="1" arrows="1" fold="1" page="1" pageScale="1" pageWidth="827" pageHeight="1169" math="0" shadow="0">
      <root>
        <mxCell id="0" />
        <mxCell id="1" parent="0" />
        <mxCell id="8uMzrMITy1PKo86j0_5z-1" value="" style="ellipse;html=1;shape=startState;fillColor=#000000;strokeColor=#ff0000;" parent="1" vertex="1">
          <mxGeometry x="30" y="80" width="30" height="30" as="geometry" />
        </mxCell>
        <mxCell id="8uMzrMITy1PKo86j0_5z-6" value="World 2" style="html=1;verticalAlign=bottom;endArrow=block;" parent="1" edge="1">
          <mxGeometry width="80" relative="1" as="geometry">
            <mxPoint x="50" y="94.5" as="sourcePoint" />
            <mxPoint x="130" y="94.5" as="targetPoint" />
          </mxGeometry>
        </mxCell>
        <mxCell id="8uMzrMITy1PKo86j0_5z-7" value="Champions League final" style="rounded=1;whiteSpace=wrap;html=1;" parent="1" vertex="1">
          <mxGeometry x="130" y="65" width="120" height="60" as="geometry" />
        </mxCell>
        <mxCell id="8uMzrMITy1PKo86j0_5z-9" value="Favourite player chosen?" style="rhombus;whiteSpace=wrap;html=1;" parent="1" vertex="1">
          <mxGeometry x="320" y="52.5" width="80" height="85" as="geometry" />
        </mxCell>
        <mxCell id="8uMzrMITy1PKo86j0_5z-11" value="" style="html=1;verticalAlign=bottom;endArrow=block;" parent="1" edge="1">
          <mxGeometry width="80" relative="1" as="geometry">
            <mxPoint x="250" y="94.5" as="sourcePoint" />
            <mxPoint x="320" y="95" as="targetPoint" />
          </mxGeometry>
        </mxCell>
        <mxCell id="8uMzrMITy1PKo86j0_5z-12" value="Yes" style="html=1;verticalAlign=bottom;endArrow=block;" parent="1" edge="1">
          <mxGeometry width="80" relative="1" as="geometry">
            <mxPoint x="400" y="94.5" as="sourcePoint" />
            <mxPoint x="480" y="94.5" as="targetPoint" />
          </mxGeometry>
        </mxCell>
        <mxCell id="8uMzrMITy1PKo86j0_5z-13" value="Valid answer?" style="rounded=1;whiteSpace=wrap;html=1;" parent="1" vertex="1">
          <mxGeometry x="480" y="65" width="120" height="60" as="geometry" />
        </mxCell>
        <mxCell id="8uMzrMITy1PKo86j0_5z-14" value="No" style="html=1;verticalAlign=bottom;endArrow=block;entryX=0.5;entryY=1;entryDx=0;entryDy=0;" parent="1" target="8uMzrMITy1PKo86j0_5z-9" edge="1">
          <mxGeometry width="80" relative="1" as="geometry">
            <mxPoint x="539.5" y="125" as="sourcePoint" />
            <mxPoint x="360" y="165" as="targetPoint" />
            <Array as="points">
              <mxPoint x="540" y="165" />
              <mxPoint x="360" y="165" />
            </Array>
          </mxGeometry>
        </mxCell>
        <mxCell id="8uMzrMITy1PKo86j0_5z-15" value="Yes" style="html=1;verticalAlign=bottom;endArrow=block;" parent="1" edge="1">
          <mxGeometry width="80" relative="1" as="geometry">
            <mxPoint x="600" y="94.5" as="sourcePoint" />
            <mxPoint x="680" y="94.5" as="targetPoint" />
          </mxGeometry>
        </mxCell>
        <mxCell id="8uMzrMITy1PKo86j0_5z-16" value="Opponent chosen?" style="rhombus;whiteSpace=wrap;html=1;" parent="1" vertex="1">
          <mxGeometry x="680" y="52.5" width="80" height="85" as="geometry" />
        </mxCell>
        <mxCell id="8uMzrMITy1PKo86j0_5z-17" value="Yes" style="html=1;verticalAlign=bottom;endArrow=block;" parent="1" edge="1">
          <mxGeometry width="80" relative="1" as="geometry">
            <mxPoint x="760" y="94.5" as="sourcePoint" />
            <mxPoint x="840" y="94.5" as="targetPoint" />
          </mxGeometry>
        </mxCell>
        <mxCell id="8uMzrMITy1PKo86j0_5z-18" value="Valid answer?" style="rounded=1;whiteSpace=wrap;html=1;" parent="1" vertex="1">
          <mxGeometry x="840" y="65" width="120" height="60" as="geometry" />
        </mxCell>
        <mxCell id="8uMzrMITy1PKo86j0_5z-19" value="No" style="html=1;verticalAlign=bottom;endArrow=block;entryX=0.5;entryY=1;entryDx=0;entryDy=0;" parent="1" target="8uMzrMITy1PKo86j0_5z-16" edge="1">
          <mxGeometry width="80" relative="1" as="geometry">
            <mxPoint x="899.5" y="125" as="sourcePoint" />
            <mxPoint x="720" y="165" as="targetPoint" />
            <Array as="points">
              <mxPoint x="900" y="165" />
              <mxPoint x="720" y="165" />
            </Array>
          </mxGeometry>
        </mxCell>
        <mxCell id="8uMzrMITy1PKo86j0_5z-20" value="Yes" style="html=1;verticalAlign=bottom;endArrow=block;" parent="1" edge="1">
          <mxGeometry width="80" relative="1" as="geometry">
            <mxPoint x="960" y="94.5" as="sourcePoint" />
            <mxPoint x="1040" y="94.5" as="targetPoint" />
          </mxGeometry>
        </mxCell>
        <mxCell id="8uMzrMITy1PKo86j0_5z-21" value="Answer True and False questions" style="rounded=1;whiteSpace=wrap;html=1;" parent="1" vertex="1">
          <mxGeometry x="1040" y="65" width="120" height="60" as="geometry" />
        </mxCell>
        <mxCell id="8uMzrMITy1PKo86j0_5z-23" value="" style="html=1;verticalAlign=bottom;endArrow=block;entryX=0.5;entryY=0;entryDx=0;entryDy=0;" parent="1" target="8uMzrMITy1PKo86j0_5z-24" edge="1">
          <mxGeometry width="80" relative="1" as="geometry">
            <mxPoint x="1099.5" y="125" as="sourcePoint" />
            <mxPoint x="1100" y="240" as="targetPoint" />
          </mxGeometry>
        </mxCell>
        <mxCell id="8uMzrMITy1PKo86j0_5z-24" value="Question answered?" style="rhombus;whiteSpace=wrap;html=1;" parent="1" vertex="1">
          <mxGeometry x="1055" y="270" width="90" height="90" as="geometry" />
        </mxCell>
        <mxCell id="8uMzrMITy1PKo86j0_5z-25" value="No" style="html=1;verticalAlign=bottom;endArrow=block;" parent="1" edge="1">
          <mxGeometry width="80" relative="1" as="geometry">
            <mxPoint x="1099.5" y="360" as="sourcePoint" />
            <mxPoint x="1099.5" y="430" as="targetPoint" />
          </mxGeometry>
        </mxCell>
        <mxCell id="8uMzrMITy1PKo86j0_5z-26" value="Try again" style="rounded=1;whiteSpace=wrap;html=1;" parent="1" vertex="1">
          <mxGeometry x="1055" y="430" width="90" height="40" as="geometry" />
        </mxCell>
        <mxCell id="8uMzrMITy1PKo86j0_5z-27" value="" style="html=1;verticalAlign=bottom;endArrow=block;entryX=1;entryY=0.5;entryDx=0;entryDy=0;" parent="1" target="8uMzrMITy1PKo86j0_5z-24" edge="1">
          <mxGeometry width="80" relative="1" as="geometry">
            <mxPoint x="1145" y="449.5" as="sourcePoint" />
            <mxPoint x="1150" y="360" as="targetPoint" />
            <Array as="points">
              <mxPoint x="1225" y="450" />
              <mxPoint x="1225" y="315" />
            </Array>
          </mxGeometry>
        </mxCell>
        <mxCell id="8uMzrMITy1PKo86j0_5z-28" value="Yes" style="html=1;verticalAlign=bottom;endArrow=block;exitX=0;exitY=0.5;exitDx=0;exitDy=0;" parent="1" source="8uMzrMITy1PKo86j0_5z-24" edge="1">
          <mxGeometry width="80" relative="1" as="geometry">
            <mxPoint x="950" y="310" as="sourcePoint" />
            <mxPoint x="960" y="315" as="targetPoint" />
          </mxGeometry>
        </mxCell>
        <mxCell id="8uMzrMITy1PKo86j0_5z-29" value="Question correct?" style="rhombus;whiteSpace=wrap;html=1;" parent="1" vertex="1">
          <mxGeometry x="880" y="275" width="80" height="80" as="geometry" />
        </mxCell>
        <mxCell id="8uMzrMITy1PKo86j0_5z-30" value="Penalty scored?" style="rhombus;whiteSpace=wrap;html=1;" parent="1" vertex="1">
          <mxGeometry x="420" y="275" width="80" height="80" as="geometry" />
        </mxCell>
        <mxCell id="8uMzrMITy1PKo86j0_5z-32" value="Take penalty" style="rounded=1;whiteSpace=wrap;html=1;" parent="1" vertex="1">
          <mxGeometry x="550" y="297.5" width="90" height="35" as="geometry" />
        </mxCell>
        <mxCell id="8uMzrMITy1PKo86j0_5z-33" value="" style="html=1;verticalAlign=bottom;endArrow=block;exitX=0;exitY=0.5;exitDx=0;exitDy=0;" parent="1" source="8uMzrMITy1PKo86j0_5z-32" edge="1" target="8uMzrMITy1PKo86j0_5z-30">
          <mxGeometry x="-0.4286" y="10" width="80" relative="1" as="geometry">
            <mxPoint x="720" y="314.5" as="sourcePoint" />
            <mxPoint x="590" y="315" as="targetPoint" />
            <mxPoint as="offset" />
          </mxGeometry>
        </mxCell>
        <mxCell id="8uMzrMITy1PKo86j0_5z-36" value="Yes" style="html=1;verticalAlign=bottom;endArrow=block;" parent="1" edge="1">
          <mxGeometry width="80" relative="1" as="geometry">
            <mxPoint x="880" y="314.5" as="sourcePoint" />
            <mxPoint x="820" y="315" as="targetPoint" />
            <Array as="points" />
          </mxGeometry>
        </mxCell>
        <mxCell id="8uMzrMITy1PKo86j0_5z-38" value="Higher chance to score penalty" style="rounded=0;whiteSpace=wrap;html=1;" parent="1" vertex="1">
          <mxGeometry x="700" y="285" width="120" height="60" as="geometry" />
        </mxCell>
        <mxCell id="JMGEg_DeYCBags_wuVNc-1" value="" style="html=1;verticalAlign=bottom;endArrow=block;" edge="1" parent="1">
          <mxGeometry width="80" relative="1" as="geometry">
            <mxPoint x="700" y="314.5" as="sourcePoint" />
            <mxPoint x="640" y="314.5" as="targetPoint" />
          </mxGeometry>
        </mxCell>
        <mxCell id="JMGEg_DeYCBags_wuVNc-2" value="No" style="html=1;verticalAlign=bottom;endArrow=block;entryX=1;entryY=0.5;entryDx=0;entryDy=0;" edge="1" parent="1" target="JMGEg_DeYCBags_wuVNc-5">
          <mxGeometry x="0.1511" y="17" width="80" relative="1" as="geometry">
            <mxPoint x="459.5" y="355" as="sourcePoint" />
            <mxPoint x="459.5" y="405" as="targetPoint" />
            <Array as="points">
              <mxPoint x="460" y="373" />
            </Array>
            <mxPoint as="offset" />
          </mxGeometry>
        </mxCell>
        <mxCell id="JMGEg_DeYCBags_wuVNc-3" value="Yes" style="html=1;verticalAlign=bottom;endArrow=block;" edge="1" parent="1">
          <mxGeometry width="80" relative="1" as="geometry">
            <mxPoint x="420" y="314.5" as="sourcePoint" />
            <mxPoint x="360" y="314.5" as="targetPoint" />
          </mxGeometry>
        </mxCell>
        <mxCell id="JMGEg_DeYCBags_wuVNc-5" value="Score +0" style="rounded=0;whiteSpace=wrap;html=1;" vertex="1" parent="1">
          <mxGeometry x="300" y="355" width="60" height="35" as="geometry" />
        </mxCell>
        <mxCell id="JMGEg_DeYCBags_wuVNc-6" value="Score +1" style="rounded=0;whiteSpace=wrap;html=1;" vertex="1" parent="1">
          <mxGeometry x="300" y="297.5" width="60" height="35" as="geometry" />
        </mxCell>
        <mxCell id="JMGEg_DeYCBags_wuVNc-8" value="" style="html=1;verticalAlign=bottom;endArrow=block;entryX=1;entryY=0.5;entryDx=0;entryDy=0;" edge="1" parent="1" target="JMGEg_DeYCBags_wuVNc-16">
          <mxGeometry width="80" relative="1" as="geometry">
            <mxPoint x="300" y="319.5" as="sourcePoint" />
            <mxPoint x="260" y="345" as="targetPoint" />
          </mxGeometry>
        </mxCell>
        <mxCell id="JMGEg_DeYCBags_wuVNc-9" value="" style="html=1;verticalAlign=bottom;endArrow=block;entryX=1;entryY=0.5;entryDx=0;entryDy=0;exitX=0;exitY=0.5;exitDx=0;exitDy=0;" edge="1" parent="1" source="JMGEg_DeYCBags_wuVNc-5">
          <mxGeometry width="80" relative="1" as="geometry">
            <mxPoint x="230" y="370" as="sourcePoint" />
            <mxPoint x="190" y="338" as="targetPoint" />
          </mxGeometry>
        </mxCell>
        <mxCell id="JMGEg_DeYCBags_wuVNc-16" value="Display score" style="rounded=0;whiteSpace=wrap;html=1;strokeColor=#000000;" vertex="1" parent="1">
          <mxGeometry x="80" y="310" width="110" height="60" as="geometry" />
        </mxCell>
        <mxCell id="JMGEg_DeYCBags_wuVNc-18" value="No" style="html=1;verticalAlign=bottom;endArrow=block;" edge="1" parent="1">
          <mxGeometry width="80" relative="1" as="geometry">
            <mxPoint x="919.5" y="355" as="sourcePoint" />
            <mxPoint x="820" y="400" as="targetPoint" />
            <Array as="points">
              <mxPoint x="920" y="400" />
            </Array>
          </mxGeometry>
        </mxCell>
        <mxCell id="JMGEg_DeYCBags_wuVNc-19" value="Lower chance to score penalty" style="rounded=0;whiteSpace=wrap;html=1;" vertex="1" parent="1">
          <mxGeometry x="700" y="370" width="120" height="60" as="geometry" />
        </mxCell>
        <mxCell id="JMGEg_DeYCBags_wuVNc-20" value="" style="html=1;verticalAlign=bottom;endArrow=block;entryX=0.5;entryY=1;entryDx=0;entryDy=0;" edge="1" parent="1" target="8uMzrMITy1PKo86j0_5z-32">
          <mxGeometry width="80" relative="1" as="geometry">
            <mxPoint x="700" y="399.5" as="sourcePoint" />
            <mxPoint x="590" y="400" as="targetPoint" />
            <Array as="points">
              <mxPoint x="595" y="400" />
            </Array>
          </mxGeometry>
        </mxCell>
        <mxCell id="JMGEg_DeYCBags_wuVNc-21" value="" style="html=1;verticalAlign=bottom;endArrow=block;shadow=0;strokeWidth=1;" edge="1" parent="1" target="JMGEg_DeYCBags_wuVNc-22">
          <mxGeometry width="80" relative="1" as="geometry">
            <mxPoint x="134.5" y="370" as="sourcePoint" />
            <mxPoint x="134.5" y="440" as="targetPoint" />
          </mxGeometry>
        </mxCell>
        <mxCell id="JMGEg_DeYCBags_wuVNc-22" value="Opponent turn" style="rounded=1;whiteSpace=wrap;html=1;" vertex="1" parent="1">
          <mxGeometry x="82.75" y="417.5" width="104.5" height="30" as="geometry" />
        </mxCell>
        <mxCell id="JMGEg_DeYCBags_wuVNc-24" value="Penalty scored?" style="rhombus;whiteSpace=wrap;html=1;direction=west;" vertex="1" parent="1">
          <mxGeometry x="240" y="478.5" width="80" height="80" as="geometry" />
        </mxCell>
        <mxCell id="JMGEg_DeYCBags_wuVNc-25" value="No" style="html=1;verticalAlign=bottom;endArrow=block;entryX=1;entryY=0.5;entryDx=0;entryDy=0;" edge="1" target="JMGEg_DeYCBags_wuVNc-27" parent="1">
          <mxGeometry x="0.0635" y="8" width="80" relative="1" as="geometry">
            <mxPoint x="280" y="561" as="sourcePoint" />
            <mxPoint x="349.5" y="688" as="targetPoint" />
            <Array as="points">
              <mxPoint x="280" y="576" />
            </Array>
            <mxPoint as="offset" />
          </mxGeometry>
        </mxCell>
        <mxCell id="JMGEg_DeYCBags_wuVNc-26" value="Yes" style="html=1;verticalAlign=bottom;endArrow=block;" edge="1" parent="1">
          <mxGeometry width="80" relative="1" as="geometry">
            <mxPoint x="320" y="518" as="sourcePoint" />
            <mxPoint x="380" y="518" as="targetPoint" />
          </mxGeometry>
        </mxCell>
        <mxCell id="JMGEg_DeYCBags_wuVNc-27" value="Score +0" style="rounded=0;whiteSpace=wrap;html=1;direction=west;" vertex="1" parent="1">
          <mxGeometry x="380" y="558.5" width="60" height="35" as="geometry" />
        </mxCell>
        <mxCell id="JMGEg_DeYCBags_wuVNc-28" value="Score +1" style="rounded=0;whiteSpace=wrap;html=1;direction=west;" vertex="1" parent="1">
          <mxGeometry x="380" y="501" width="60" height="35" as="geometry" />
        </mxCell>
        <mxCell id="JMGEg_DeYCBags_wuVNc-29" value="" style="html=1;verticalAlign=bottom;endArrow=block;entryX=0;entryY=0.5;entryDx=0;entryDy=0;" edge="1" parent="1" target="JMGEg_DeYCBags_wuVNc-35">
          <mxGeometry width="80" relative="1" as="geometry">
            <mxPoint x="440" y="519" as="sourcePoint" />
            <mxPoint x="470" y="541" as="targetPoint" />
            <Array as="points" />
          </mxGeometry>
        </mxCell>
        <mxCell id="JMGEg_DeYCBags_wuVNc-30" value="" style="html=1;verticalAlign=bottom;endArrow=block;entryX=0;entryY=0.5;entryDx=0;entryDy=0;" edge="1" parent="1" target="JMGEg_DeYCBags_wuVNc-35">
          <mxGeometry width="80" relative="1" as="geometry">
            <mxPoint x="440" y="580" as="sourcePoint" />
            <mxPoint x="520" y="536" as="targetPoint" />
            <Array as="points">
              <mxPoint x="440" y="580" />
            </Array>
          </mxGeometry>
        </mxCell>
        <mxCell id="JMGEg_DeYCBags_wuVNc-32" value="Take penalty" style="rounded=1;whiteSpace=wrap;html=1;" vertex="1" parent="1">
          <mxGeometry x="90" y="501" width="90" height="35" as="geometry" />
        </mxCell>
        <mxCell id="JMGEg_DeYCBags_wuVNc-33" value="" style="html=1;verticalAlign=bottom;endArrow=block;shadow=0;strokeWidth=1;" edge="1" parent="1">
          <mxGeometry width="80" relative="1" as="geometry">
            <mxPoint x="135" y="450" as="sourcePoint" />
            <mxPoint x="135" y="500" as="targetPoint" />
            <Array as="points">
              <mxPoint x="134.5" y="480" />
            </Array>
          </mxGeometry>
        </mxCell>
        <mxCell id="JMGEg_DeYCBags_wuVNc-35" value="Display score" style="rounded=0;whiteSpace=wrap;html=1;strokeColor=#000000;" vertex="1" parent="1">
          <mxGeometry x="520" y="511" width="110" height="60" as="geometry" />
        </mxCell>
        <mxCell id="JMGEg_DeYCBags_wuVNc-37" value="" style="html=1;verticalAlign=bottom;endArrow=block;shadow=0;strokeWidth=1;" edge="1" parent="1">
          <mxGeometry width="80" relative="1" as="geometry">
            <mxPoint x="180" y="518" as="sourcePoint" />
            <mxPoint x="240" y="518" as="targetPoint" />
          </mxGeometry>
        </mxCell>
        <mxCell id="JMGEg_DeYCBags_wuVNc-38" value="All questions answered?" style="rhombus;whiteSpace=wrap;html=1;strokeColor=#000000;" vertex="1" parent="1">
          <mxGeometry x="710" y="496" width="90" height="90" as="geometry" />
        </mxCell>
        <mxCell id="JMGEg_DeYCBags_wuVNc-39" value="" style="html=1;verticalAlign=bottom;endArrow=block;shadow=0;strokeWidth=1;" edge="1" parent="1">
          <mxGeometry width="80" relative="1" as="geometry">
            <mxPoint x="630" y="540.5" as="sourcePoint" />
            <mxPoint x="710" y="540.5" as="targetPoint" />
          </mxGeometry>
        </mxCell>
        <mxCell id="JMGEg_DeYCBags_wuVNc-40" value="No" style="html=1;verticalAlign=bottom;endArrow=block;shadow=0;strokeWidth=1;entryX=1;entryY=0.5;entryDx=0;entryDy=0;exitX=1;exitY=0.5;exitDx=0;exitDy=0;" edge="1" parent="1" source="JMGEg_DeYCBags_wuVNc-38" target="8uMzrMITy1PKo86j0_5z-21">
          <mxGeometry x="-0.9007" y="1" width="80" relative="1" as="geometry">
            <mxPoint x="840" y="540.5" as="sourcePoint" />
            <mxPoint x="1270" y="100" as="targetPoint" />
            <Array as="points">
              <mxPoint x="1281" y="541" />
              <mxPoint x="1280" y="95" />
            </Array>
            <mxPoint as="offset" />
          </mxGeometry>
        </mxCell>
        <mxCell id="JMGEg_DeYCBags_wuVNc-43" value="Yes" style="html=1;verticalAlign=bottom;endArrow=block;shadow=0;strokeWidth=1;entryX=0.5;entryY=0;entryDx=0;entryDy=0;" edge="1" parent="1" target="JMGEg_DeYCBags_wuVNc-44">
          <mxGeometry width="80" relative="1" as="geometry">
            <mxPoint x="754.5" y="586" as="sourcePoint" />
            <mxPoint x="754.5" y="666" as="targetPoint" />
          </mxGeometry>
        </mxCell>
        <mxCell id="JMGEg_DeYCBags_wuVNc-44" value="Player score&lt;br&gt;&amp;nbsp;&amp;gt; opponents score?" style="rhombus;whiteSpace=wrap;html=1;strokeColor=#000000;" vertex="1" parent="1">
          <mxGeometry x="705" y="650" width="100" height="100" as="geometry" />
        </mxCell>
        <mxCell id="JMGEg_DeYCBags_wuVNc-45" style="edgeStyle=orthogonalEdgeStyle;rounded=0;orthogonalLoop=1;jettySize=auto;html=1;exitX=0.5;exitY=1;exitDx=0;exitDy=0;shadow=0;strokeWidth=1;" edge="1" parent="1" source="JMGEg_DeYCBags_wuVNc-44" target="JMGEg_DeYCBags_wuVNc-44">
          <mxGeometry relative="1" as="geometry" />
        </mxCell>
        <mxCell id="JMGEg_DeYCBags_wuVNc-46" value="Yes" style="html=1;verticalAlign=bottom;endArrow=block;shadow=0;strokeWidth=1;exitX=1;exitY=0.5;exitDx=0;exitDy=0;" edge="1" parent="1" source="JMGEg_DeYCBags_wuVNc-44">
          <mxGeometry x="-0.125" width="80" relative="1" as="geometry">
            <mxPoint x="810" y="700" as="sourcePoint" />
            <mxPoint x="890" y="699.5" as="targetPoint" />
            <mxPoint as="offset" />
          </mxGeometry>
        </mxCell>
        <mxCell id="JMGEg_DeYCBags_wuVNc-47" value="Player wins&lt;br&gt;Return True" style="rounded=1;whiteSpace=wrap;html=1;strokeColor=#000000;" vertex="1" parent="1">
          <mxGeometry x="890" y="670" width="120" height="60" as="geometry" />
        </mxCell>
        <mxCell id="JMGEg_DeYCBags_wuVNc-48" value="" style="ellipse;html=1;shape=endState;fillColor=#000000;strokeColor=#ff0000;" vertex="1" parent="1">
          <mxGeometry x="1100" y="685" width="30" height="30" as="geometry" />
        </mxCell>
        <mxCell id="JMGEg_DeYCBags_wuVNc-49" value="" style="html=1;verticalAlign=bottom;endArrow=block;shadow=0;strokeWidth=1;entryX=0;entryY=0.5;entryDx=0;entryDy=0;" edge="1" parent="1" target="JMGEg_DeYCBags_wuVNc-48">
          <mxGeometry width="80" relative="1" as="geometry">
            <mxPoint x="1010" y="699.5" as="sourcePoint" />
            <mxPoint x="1090" y="699.5" as="targetPoint" />
          </mxGeometry>
        </mxCell>
        <mxCell id="JMGEg_DeYCBags_wuVNc-50" value="No" style="html=1;verticalAlign=bottom;endArrow=block;shadow=0;strokeWidth=1;entryX=1;entryY=0.5;entryDx=0;entryDy=0;" edge="1" parent="1" target="JMGEg_DeYCBags_wuVNc-51">
          <mxGeometry width="80" relative="1" as="geometry">
            <mxPoint x="705" y="699.5" as="sourcePoint" />
            <mxPoint x="615" y="700" as="targetPoint" />
          </mxGeometry>
        </mxCell>
        <mxCell id="JMGEg_DeYCBags_wuVNc-51" value="Player loses&lt;br&gt;Return False" style="rounded=1;whiteSpace=wrap;html=1;strokeColor=#000000;" vertex="1" parent="1">
          <mxGeometry x="500" y="670" width="120" height="60" as="geometry" />
        </mxCell>
        <mxCell id="JMGEg_DeYCBags_wuVNc-53" value="" style="html=1;verticalAlign=bottom;endArrow=block;shadow=0;strokeWidth=1;exitX=0;exitY=0.5;exitDx=0;exitDy=0;" edge="1" parent="1" source="JMGEg_DeYCBags_wuVNc-51">
          <mxGeometry width="80" relative="1" as="geometry">
            <mxPoint x="360" y="699.5" as="sourcePoint" />
            <mxPoint x="420" y="700" as="targetPoint" />
          </mxGeometry>
        </mxCell>
        <mxCell id="JMGEg_DeYCBags_wuVNc-56" value="" style="ellipse;html=1;shape=endState;fillColor=#000000;strokeColor=#ff0000;" vertex="1" parent="1">
          <mxGeometry x="390" y="685" width="30" height="30" as="geometry" />
        </mxCell>
      </root>
    </mxGraphModel>
  </diagram>
</mxfile>
